<svg xmlns="http://www.w3.org/2000/svg" version="1.1" xmlns:xlink="http://www.w3.org/1999/xlink" xmlns:svgjs="http://svgjs.dev/svgjs" width="1000" height="1000" viewBox="0 0 1000 1000"><rect width="1000" height="1000" fill="#282634"></rect><g transform="matrix(0.7,0,0,0.7,149.57575757575756,282.1265587044535)"><svg viewBox="0 0 396 247" data-background-color="#282634" preserveAspectRatio="xMidYMid meet" height="623" width="1000" xmlns="http://www.w3.org/2000/svg" xmlns:xlink="http://www.w3.org/1999/xlink"><g id="tight-bounds" transform="matrix(1,0,0,1,0.2400000000000091,-0.09999999999999432)"><svg viewBox="0 0 395.52 247.2" height="247.2" width="395.52"><g><svg></svg></g><g><svg viewBox="0 0 395.52 247.2" height="247.2" width="395.52"><g><path xmlns="http://www.w3.org/2000/svg" d="M55.039 247.2l41.271-71.484v25.752h202.9v-25.752l41.271 71.484zM197.76 0l26.403 45.732-52.806 0z" fill="#ff4057" fill-rule="nonzero" stroke="none" stroke-width="1" stroke-linecap="butt" stroke-linejoin="miter" stroke-miterlimit="10" stroke-dasharray="" stroke-dashoffset="0" font-family="none" font-weight="none" font-size="none" text-anchor="none" style="mix-blend-mode: normal" data-fill-palette-color="tertiary"></path></g><g transform="matrix(1,0,0,1,118.55842105263157,67.97999999999999)"><svg viewBox="0 0 158.40315789473684 111.24" height="111.24" width="158.40315789473684"><g><svg viewBox="0 0 158.40315789473684 111.24" height="111.24" width="158.40315789473684"><g><svg viewBox="0 0 158.40315789473684 111.24" height="111.24" width="158.40315789473684"><g><svg viewBox="0 0 158.40315789473684 111.24" height="111.24" width="158.40315789473684"><g id="textblocktransform"><svg viewBox="0 0 158.40315789473684 111.24" height="111.24" width="158.40315789473684" id="textblock"><g><svg viewBox="0 0 158.40315789473684 111.24" height="111.24" width="158.40315789473684"><g transform="matrix(1,0,0,1,0,0)"><svg width="158.40315789473684" viewBox="0.699999988079071 -33.599998474121094 48.70000076293945 34.19999694824219" height="111.24" data-palette-color="#ff4057"><path d="M21.35 0L21.35-0.5 21.6-0.5Q22.8-0.5 22.8-1.6L22.8-1.6Q22.8-2 22.65-2.45L22.65-2.45 18.15-14.6 9.4-14.6 5.05-2.65Q4.9-2.25 4.9-1.9L4.9-1.9Q4.9-1.25 5.25-0.88 5.6-0.5 6-0.5L6-0.5 6.25-0.5 6.25 0 0.7 0 0.7-0.5 0.95-0.5Q1.6-0.5 2.23-1.28 2.85-2.05 3.25-3.1L3.25-3.1 14.7-33.6 25.9-3.4Q26.25-2.4 26.88-1.45 27.5-0.5 28.5-0.5L28.5-0.5 28.75-0.5 28.75 0 21.35 0ZM13.75-26.75L9.9-16.3 17.6-16.3 13.75-26.75ZM27.4-31.25L27.4-31.25Q27.4-30.95 27.55-30.5L27.55-30.5 36.35-6.8 45.15-30.75Q45.2-30.85 45.25-31.05 45.3-31.25 45.3-31.35L45.3-31.35Q45.3-31.95 44.82-32.23 44.35-32.5 43.95-32.5L43.95-32.5 43.95-33 49.4-33 49.4-32.5Q48.65-32.5 48.02-32.1 47.4-31.7 47.05-30.75L47.05-30.75 35.6 0.6 23.9-30.6Q23.6-31.35 23.02-31.9 22.45-32.45 21.6-32.5L21.6-32.5 21.6-33 28.7-33 28.7-32.5Q28.25-32.5 27.82-32.18 27.4-31.85 27.4-31.25Z" opacity="1" transform="matrix(1,0,0,1,0,0)" fill="#ff4057" class="wordmark-text-0" data-fill-palette-color="primary" id="text-0"></path></svg></g></svg></g></svg></g></svg></g><g></g></svg></g></svg></g></svg></g></svg></g><defs></defs></svg><rect width="395.52" height="247.2" fill="none" stroke="none" visibility="hidden"></rect></g></svg></g></svg>